<?xml version="1.0" standalone="no"?>
<!DOCTYPE svg PUBLIC "-//W3C//DTD SVG 20010904//EN"
 "http://www.w3.org/TR/2001/REC-SVG-20010904/DTD/svg10.dtd">
<svg version="1.0" xmlns="http://www.w3.org/2000/svg"
 width="512.000000pt" height="512.000000pt" viewBox="0 0 512.000000 512.000000"
 preserveAspectRatio="xMidYMid meet">

<g transform="translate(0.000000,512.000000) scale(0.100000,-0.100000)"
fill="#000000" stroke="none">
<path d="M4800 4190 c0 -5 7 -10 15 -10 14 0 19 -14 28 -70 3 -14 5 -6 6 18 1
35 5 45 21 49 36 9 21 23 -25 23 -25 0 -45 -4 -45 -10z"/>
<path d="M4911 4143 c1 -49 3 -53 8 -23 l6 35 12 -32 c14 -39 30 -42 39 -8 8
33 22 32 27 -2 2 -16 5 -2 6 30 1 66 -12 73 -35 20 l-17 -38 -15 38 c-21 53
-32 46 -31 -20z"/>
<path d="M1026 3831 c-140 -31 -223 -59 -341 -115 -308 -148 -505 -373 -622
-711 l-38 -110 -3 -222 c-3 -210 -2 -227 22 -316 69 -260 255 -527 472 -677
95 -66 256 -142 364 -173 159 -46 277 -60 449 -54 292 11 514 86 725 244 117
87 275 257 381 407 50 70 95 135 101 144 15 21 25 12 90 -81 295 -423 585
-637 946 -699 108 -19 392 -15 513 7 294 51 603 238 779 469 256 336 304 817
121 1203 -61 130 -135 233 -240 338 -175 174 -363 276 -618 337 -76 18 -123
22 -272 22 -159 0 -194 -3 -297 -26 -368 -83 -671 -297 -926 -655 -37 -51 -72
-93 -78 -93 -7 0 -52 52 -100 116 -267 356 -564 561 -924 639 -45 9 -143 18
-245 20 -143 4 -184 2 -259 -14z m466 -420 c268 -70 495 -262 736 -623 40 -59
72 -114 72 -123 0 -8 -43 -82 -96 -163 -212 -324 -381 -493 -575 -573 -120
-49 -211 -62 -383 -56 -173 6 -245 21 -361 76 -183 86 -321 222 -400 394 -48
107 -60 166 -58 302 4 361 196 625 537 740 173 58 368 68 528 26z m2453 19
c102 -12 206 -40 280 -77 140 -71 286 -201 358 -319 112 -186 128 -449 40
-673 -72 -182 -196 -310 -388 -402 -147 -71 -193 -81 -390 -86 -151 -4 -179
-3 -255 17 -254 65 -445 235 -693 616 -46 71 -86 137 -90 147 -8 22 113 209
227 351 189 235 410 378 641 415 146 23 154 24 270 11z"/>
<path d="M870 2772 c-6 -2 -10 -39 -10 -88 l0 -84 420 0 420 0 0 85 c0 47 -3
86 -7 86 -20 3 -814 4 -823 1z"/>
<path d="M3685 3018 c-3 -7 -6 -58 -7 -113 l-3 -100 -110 -5 -110 -5 0 -110 0
-110 110 -5 110 -5 5 -110 5 -110 113 -3 c85 -2 112 0 113 10 1 7 0 50 -1 95
-3 128 -8 123 121 123 l109 0 0 115 0 115 -104 0 c-78 0 -106 4 -116 15 -7 9
-11 46 -10 102 1 48 2 94 1 101 -1 9 -30 12 -111 12 -79 0 -112 -4 -115 -12z"/>
</g>
</svg>
